<?xml version="1.0" encoding="UTF-8" standalone="no"?>
<svg
   data-v-fde0c5aa=""
   viewBox="0 0 300 300"
   class="iconLeft"
   version="1.1"
   id="svg22"
   sodipodi:docname="icon.svg"
   inkscape:version="1.1.1 (3bf5ae0d25, 2021-09-20)"
   xmlns:inkscape="http://www.inkscape.org/namespaces/inkscape"
   xmlns:sodipodi="http://sodipodi.sourceforge.net/DTD/sodipodi-0.dtd"
   xmlns="http://www.w3.org/2000/svg"
   xmlns:svg="http://www.w3.org/2000/svg">
  <sodipodi:namedview
     id="namedview24"
     pagecolor="#ffffff"
     bordercolor="#666666"
     borderopacity="1.0"
     inkscape:pageshadow="2"
     inkscape:pageopacity="0.0"
     inkscape:pagecheckerboard="0"
     showgrid="false"
     inkscape:zoom="2.1"
     inkscape:cx="149.7619"
     inkscape:cy="149.7619"
     inkscape:window-width="1920"
     inkscape:window-height="1007"
     inkscape:window-x="0"
     inkscape:window-y="0"
     inkscape:window-maximized="1"
     inkscape:current-layer="svg22" />
  <!---->
  <defs
     data-v-fde0c5aa=""
     id="defs2">
    <!---->
  </defs>
  <rect
     data-v-fde0c5aa=""
     fill="#DF245B"
     x="0"
     y="0"
     width="300px"
     height="300px"
     class="logo-background-square"
     id="rect4" />
  <defs
     data-v-fde0c5aa=""
     id="defs6">
    <!---->
  </defs>
  <defs
     data-v-fde0c5aa=""
     id="defs11">
    <!---->
  </defs>
  <g
     data-v-fde0c5aa=""
     id="fb1d3870-84c8-40be-9cfa-ec54a763b41f"
     stroke="none"
     fill="#092d54"
     transform="matrix(3.7313433,0,0,3.8461538,-42.537314,-42.307691)"
     inkscape:export-filename="/mnt/Cold Storage/USB/Logos/Tomoe/icon.png"
     inkscape:export-xdpi="327.67999"
     inkscape:export-ydpi="327.67999">
    <path
       d="m 52.6,42.3 c 0.4,0.2 2.1,0.4 2.1,0.4 l 5.8,-15 -8.6,8.8 1.6,-3.8 -8.9,11.3 c 0,0 4.4,-1.1 5.1,-1.3 0.7,-0.3 2.4,-0.6 2.9,-0.4 z"
       id="path13" />
    <path
       d="m 41.6,72.2 v -1.6 l 0.9,0.4 v -1.5 l 7.6,-2.8 c 2,0.3 4.4,0 7,-1.9 0.4,-0.3 0.8,-0.7 1.2,-1.1 0,0 2.5,-1.6 4.8,-3.5 0,0 3,-4.9 1,-8.2 l -2,-3.3 c 0,0 5.2,2.6 4.4,8.3 0.4,-0.4 0.7,-0.9 0.9,-1.3 1.3,-2.9 1.4,-6.5 1.4,-8.1 0,-1.6 4.4,-19 4.4,-19 l -7.4,8.8 0.3,-2.1 -6.6,5.6 -4.3,3.1 C 54.1,43.5 53,43.3 51.9,43.5 48.6,44 43,44.9 41.5,47.6 c -1.2,2 -2.6,4.9 -2.9,7.1 l -5.4,4 c -0.4,0 -0.9,0 -1.3,0.3 -0.6,0.3 -0.9,0.9 -1,1.4 h -0.1 c 0,0 -1,4.9 1,6.6 2,1.8 7,4.7 8.1,4.5 1,-0.2 1.7,0.7 1.7,0.7 z m -2.7,-8.5 h -1.2 l 1,-0.6 h 0.2 c 0.1,0 0,0.6 0,0.6 z M 36.6,62.2 36,63.7 c 0,0 -0.5,-3.4 3.2,-3 l 0.4,0.3 c 0,0 -2.4,-0.2 -3,1.2 z"
       id="path15" />
    <path
       d="M 71.3,25.6 C 76,31 78.8,38.1 78.8,45.9 78.9,63.1 65,77 47.8,77 41.4,77 35.4,75.1 30.5,71.7 36.2,78.3 44.6,82.5 54,82.5 71.2,82.5 85.1,68.6 85.1,51.4 85.1,40.7 79.6,31.2 71.3,25.6 Z"
       id="path17" />
    <path
       d="M 35.2,77.5 C 29,72.1 25.4,65.1 25.4,56.8 c 0,-18.4 16.1,-33.3 36,-33.3 7.4,0 12.5,1.5 17.5,8.1 C 73.6,22.1 65,17.5 54.1,17.5 c -19.9,0 -36,14.9 -36,33.3 0,11.6 7.5,20.7 17.1,26.7 z"
       id="path19" />
  </g>
  <!---->
</svg>
