<svg xmlns="http://www.w3.org/2000/svg" class="iconLeft" viewBox="0 0 300 300"><path fill="#DF245B" d="M0 0h300v300H0z" class="logo-background-square"/><g fill="#092d54"><path d="M153.731 120.385c1.493.769 7.836 1.538 7.836 1.538l21.642-57.692-32.09 33.846 5.97-14.615-33.208 43.461s16.418-4.23 19.03-5c2.611-1.154 8.955-2.308 10.82-1.538"/><path d="M112.687 235.385v-6.154l3.358 1.538V225l28.358-10.77c7.463 1.155 16.418 0 26.12-7.307 1.492-1.154 2.984-2.692 4.477-4.23 0 0 9.328-6.155 17.91-13.462 0 0 11.194-18.846 3.732-31.539L189.179 145s19.403 10 16.418 31.923c1.493-1.538 2.612-3.461 3.358-5 4.851-11.154 5.224-25 5.224-31.154s16.418-73.077 16.418-73.077l-27.612 33.846 1.12-8.076L179.477 115l-16.045 11.923c-4.105-1.923-8.21-2.692-12.314-1.923-12.313 1.923-33.209 5.385-38.806 15.77-4.477 7.692-9.701 18.845-10.82 27.307l-20.15 15.385c-1.492 0-3.358 0-4.85 1.153-2.24 1.154-3.359 3.462-3.732 5.385h-.373s-3.731 18.846 3.731 25.385c7.463 6.923 26.12 18.077 30.224 17.307 3.732-.769 6.344 2.693 6.344 2.693zm-10.075-32.693h-4.478l3.732-2.307h.746c.373 0 0 2.307 0 2.307m-8.582-5.769-2.239 5.77s-1.866-13.078 11.94-11.54l1.493 1.155s-8.955-.77-11.194 4.615"/><path d="M223.507 56.154c17.538 20.77 27.986 48.077 27.986 78.077.373 66.154-51.493 119.615-115.672 119.615-23.88 0-46.269-7.308-64.552-20.384C92.537 258.846 123.88 275 158.955 275 223.135 275 275 221.538 275 155.385c0-41.154-20.522-77.693-51.493-99.231"/><path d="M88.806 255.77C65.672 235 52.239 208.076 52.239 176.153c0-70.77 60.074-128.077 134.328-128.077 27.612 0 46.642 5.77 65.299 31.154C232.09 42.692 200 25 159.328 25 85.075 25 25 82.308 25 153.077c0 44.615 27.985 79.615 63.806 102.692z"/></g></svg>